<?xml version="1.0" encoding="utf-8"?>
<!-- Generator: Adobe Illustrator 19.0.0, SVG Export Plug-In . SVG Version: 6.00 Build 0)  -->
<svg version="1.1" id="Layer_1" xmlns="http://www.w3.org/2000/svg" xmlns:xlink="http://www.w3.org/1999/xlink" x="0px" y="0px"
	 viewBox="-130 222 350 350" style="enable-background:new -130 222 350 350;" xml:space="preserve">
<style type="text/css">
	.st0{fill:#FFD05B;}
	.st1{fill:#FF7058;}
	.st2{fill:#AAD154;}
	.st3{fill:#FFFFFF;}
</style>
<g id="XMLID_22_">
	<path id="XMLID_30_" class="st0" d="M21.5,281.5c16.5,22.1,23.6,52.8,15.3,84.2c18.7-26.6,25.8-62.5,15.3-98.8
		C41.7,271.7,31.6,276.6,21.5,281.5z"/>
	<path id="XMLID_28_" class="st1" d="M118.4,312.9c-12-0.7-24,1.9-35.6,7.1c-23.6,11.2-52,11.2-75.6,0c-11.2-5.6-23.2-7.9-35.6-7.1
		c-49,3.4-80.8,62.1-71.1,131s57.3,122,106.3,118.6c4.9-0.4,9.4-1.1,13.8-2.6c15.7-4.9,32.9-4.9,48.6,0c4.5,1.5,9,2.2,13.8,2.6
		c49,3.4,96.5-49.8,106.3-118.6C198.9,375,167.1,316.6,118.4,312.9z"/>
	<path id="XMLID_26_" class="st2" d="M139,232.4L139,232.4c-47.5-7.5-80.5,25.1-72.6,72.6l0,0l0,0
		C113.9,312.9,146.5,280.3,139,232.4z"/>
	
		<ellipse id="XMLID_24_" transform="matrix(-0.7071 -0.7071 0.7071 -0.7071 -347.2149 550.8909)" class="st3" cx="-59.5" cy="347.4" rx="6.7" ry="23.9"/>
</g>
<g>
	<path class="st3" d="M-29.3,473.7c4.6-4.8,8.7-8.6,12.2-11.4c5.3-4.1,8.9-6.2,10.7-6.2c0.9,0,1.6,0.3,2.3,1c0.6,0.6,0.9,1.3,0.9,2
		c0,1-1,2.7-2.9,5.1c-3,3.7-5,6.9-6.2,9.5c12.8-12.9,21.6-19.3,26.3-19.3c1,0,1.8,0.3,2.6,0.9c0.8,0.7,1.2,1.5,1.2,2.5
		c0,1.5-1.2,3.5-3.5,5.9C3.9,474.4-1.3,483.2-1.3,490.1c0,2.8,0.5,4.8,1.5,6l2.1,2.7c0.4,0.5,0.7,1.1,0.7,1.9c0,0.9-0.4,1.7-1.1,2.5
		c-0.8,0.9-1.8,1.3-2.8,1.3c-1.8,0-3.5-1.2-5-3.5c-1.9-2.7-2.8-6-2.8-9.7c0-5,1.4-10,4.3-15.1c1-1.8,2.6-4.2,4.9-7.2
		c-4.7,3.5-9.4,8.3-14.2,14.5c-3.3,4.2-6.3,8.8-8.9,14c-1.3,2.5-2.7,3.7-4.4,3.7c-1.9,0-2.8-1-2.8-3.1c0-2.3,1.5-6.9,4.6-13.9
		c1.8-4,3.9-8.2,6.5-12.7c-9.4,7.2-16.4,17.1-21.2,29.5c-1.2,2.7-2.7,4.1-4.6,4.1c-0.9,0-1.6-0.3-2.1-1c-0.6-0.7-0.9-1.5-0.9-2.4
		c0-3.2,1.8-9.1,5.4-17.5c3.8-8.9,8.1-17,12.8-24.1c3.3-5,5.8-7.5,7.7-7.5c1.6,0,2.5,0.9,2.5,2.6c0,0.8-1,2.7-3,5.8
		C-25.8,466.6-28.2,470.9-29.3,473.7z"/>
	<path class="st3" d="M36.4,487.5c-1.8,3.2-3.6,5.9-5.4,8.1c-3.5,4.3-6.9,6.4-10.3,6.4c-3,0-5.3-1.4-6.9-4.2c-1-1.8-1.6-4-1.6-6.4
		c0-6.1,1.9-12.8,5.8-20.2c4.3-8.2,9.4-14.5,15.5-18.9c4-2.9,7.8-4.3,11.4-4.3c2.3,0,4.2,0.7,5.8,2.1c1.3,1.3,2,2.7,2,4.3
		c0,1.2-0.5,2.9-1.4,5c0.8,1.2,1.2,2.2,1.2,3c0,1.2-0.8,3-2.3,5.7c-1.6,2.7-3.2,6.3-4.8,10.7c-1.7,4.7-2.6,8.5-2.6,11.4
		c0,2.3,0.7,4.2,2.1,5.7c0.4,0.4,1.5,1,3.4,1.9c1.4,0.7,2.1,1.8,2.1,3.5c0,1-0.4,1.9-1.2,2.6c-0.8,0.7-1.8,1.1-2.9,1.1
		c-3,0-5.5-1.3-7.7-4c-1.8-2.1-2.6-4.8-2.6-8.1C36,491.9,36.1,490,36.4,487.5z M46.6,460.4c-0.7-1.2-1.4-2.1-2.1-2.7
		c-0.8-0.6-1.6-0.9-2.5-0.9c-4.2,0-8.7,3.7-13.6,10.9c-5.4,8.1-8.1,14.9-8.1,20.5c0,1.4,0.3,2.4,0.8,3.1c0.5,0.7,1.3,1.1,2.3,1.1
		c2.6,0,5.7-2.8,9.2-8.4c2-3.1,4.4-7.6,7.3-13.6c1.9-3.9,3.3-6.5,4.2-7.7C44.7,462.2,45.5,461.4,46.6,460.4z"/>
	<path class="st3" d="M57,502.3c-1-0.3-1.9-0.6-2.5-1c-3.5-2.2-5.3-5.5-5.3-9.9c0-8.8,4.6-18.5,13.7-29.1c7-8.2,13.3-12.3,18.9-12.3
		c2.3,0,4,1,5.1,2.9c0.6,1,0.9,2.4,0.9,4c0,4-1.6,8-4.8,12.1c-2.4,3.1-4.4,4.6-6.3,4.6c-1.6,0-2.4-0.9-2.4-2.6
		c0-0.8,0.1-1.4,0.4-1.8c0.2-0.4,1-1.2,2.3-2.3c1-0.9,2-2.3,3.1-4.2c0.7-1.3,1.1-2.3,1.1-3c0-0.9-0.5-1.3-1.5-1.3
		c-1.2,0-2.9,0.9-5.3,2.7c-3.7,2.9-7.5,7.4-11.2,13.7c-3.8,6.5-5.8,11.6-5.8,15.3c0,1.2,0.4,2.3,1.1,3.2c1,1.4,2.4,2.1,4.2,2.1
		c3.5,0,7.5-2.1,12.3-6.4c4.1-3.7,7.4-7.4,10.1-11c1.4-2,2.7-3,3.7-3c0.6,0,1.2,0.3,1.6,0.8c0.4,0.5,0.7,1.1,0.7,1.6
		c0,2.6-3.7,7.7-11,15.2c-5.9,6.1-11.5,9.5-16.6,10l-3.3,6.1c2.6,0.5,4.5,1.2,5.7,1.9c2,1.2,3,2.9,3,5.2c0,2.6-1.1,4.8-3.4,6.8
		c-2.1,1.8-4.9,2.7-8.4,2.7c-3.7,0-6.8-0.9-9.1-2.6c-1.5-1.2-2.3-2.5-2.3-3.9c0-1.6,0.6-2.4,1.9-2.4c0.4,0,1,0.2,1.7,0.7
		c2.7,1.8,5,2.7,7.1,2.7c1.5,0,2.9-0.4,4-1.2c0.9-0.6,1.4-1.3,1.4-2.1c0-1-0.6-1.8-1.7-2.3c-0.7-0.4-1.5-0.6-2.5-0.7
		c-2.1-0.1-3.4-0.2-3.8-0.4c-0.7-0.4-1.1-1-1.1-1.7c0-0.7,0.6-2.1,1.7-4.2L57,502.3z"/>
	<path class="st3" d="M117.7,487.5c-1.8,3.2-3.6,5.9-5.4,8.1c-3.5,4.3-6.9,6.4-10.3,6.4c-3,0-5.3-1.4-6.9-4.2c-1-1.8-1.6-4-1.6-6.4
		c0-6.1,1.9-12.8,5.8-20.2c4.3-8.2,9.4-14.5,15.5-18.9c4-2.9,7.8-4.3,11.4-4.3c2.3,0,4.2,0.7,5.8,2.1c1.3,1.3,2,2.7,2,4.3
		c0,1.2-0.5,2.9-1.4,5c0.8,1.2,1.2,2.2,1.2,3c0,1.2-0.8,3-2.3,5.7c-1.6,2.7-3.2,6.3-4.8,10.7c-1.7,4.7-2.6,8.5-2.6,11.4
		c0,2.3,0.7,4.2,2.1,5.7c0.4,0.4,1.5,1,3.4,1.9c1.4,0.7,2.1,1.8,2.1,3.5c0,1-0.4,1.9-1.2,2.6c-0.8,0.7-1.8,1.1-2.9,1.1
		c-3,0-5.5-1.3-7.7-4c-1.8-2.1-2.6-4.8-2.6-8.1C117.3,491.9,117.4,490,117.7,487.5z M127.9,460.4c-0.7-1.2-1.4-2.1-2.1-2.7
		c-0.8-0.6-1.6-0.9-2.5-0.9c-4.2,0-8.7,3.7-13.6,10.9c-5.4,8.1-8.1,14.9-8.1,20.5c0,1.4,0.3,2.4,0.8,3.1c0.5,0.7,1.3,1.1,2.3,1.1
		c2.6,0,5.7-2.8,9.2-8.4c2-3.1,4.4-7.6,7.3-13.6c1.9-3.9,3.3-6.5,4.2-7.7C126,462.2,126.8,461.4,127.9,460.4z"/>
</g>
<g>
	<path class="st3" d="M9.8,434.6c-1.3,1.8-2.5,3.3-3.5,4.4c-1.8,1.9-3.5,2.9-5.2,2.9c-1.5,0-2.6-0.7-3.5-2c-0.6-0.9-0.9-2.1-0.9-3.4
		c0-3.9,1.7-8.4,5-13.5c1.5-2.4,3.1-4.2,4.6-5.4c1.2-1,2.2-1.5,2.9-1.5c0.4,0,0.8,0.2,1.2,0.5c0.3,0.3,0.5,0.7,0.5,1
		c0,0.6-0.6,1.5-1.7,2.8c-2.5,3-4.4,5.8-5.7,8.3c-1.5,2.9-2.3,5.2-2.3,6.9c0,0.4,0.1,0.8,0.3,1c0.2,0.2,0.5,0.3,0.8,0.3
		c1.5,0,3.7-2.2,6.5-6.6c1.4-2.3,2.7-4.8,3.7-7.6c0.5-1.5,1.3-2.9,2.1-4c0.8-1.1,1.7-1.6,2.5-1.6c0.5,0,0.9,0.2,1.2,0.6
		c0.4,0.4,0.6,0.9,0.6,1.4c0,1.1-1,3.5-3.1,7.4c-1.4,2.6-2.1,4.8-2.1,6.6c0,1.9,0.5,3.5,1.5,4.8c0.3,0.4,1.1,0.9,2.5,1.7
		c0.7,0.4,1,1,1,1.9c0,0.5-0.2,1-0.7,1.4c-0.5,0.4-1,0.6-1.7,0.6c-1.5,0-2.9-0.6-4.1-1.8c-1.1-1.1-1.8-2.7-2.1-4.7
		C10,436.6,9.9,435.9,9.8,434.6z"/>
	<path class="st3" d="M39.8,411.3c1.9,0,3.3,0.3,4.2,1c0.9,0.7,1.4,1.7,1.4,3c0,1.8-0.7,3.5-2,5.2c-1.3,1.6-3.2,2.8-5.7,3.8
		c-1.4,0.5-2.6,0.8-3.5,0.8c-1.3,0-1.9-0.6-1.9-1.7c0-0.8,0.4-1.3,1.1-1.7c0.2-0.1,1.2-0.3,3.1-0.8c1.1-0.2,2.2-0.8,3.1-1.6
		c0.8-0.7,1.2-1.5,1.2-2.3c0-0.6-0.2-1.1-0.5-1.4c-0.4-0.3-0.9-0.5-1.6-0.5c-1.8,0-3.7,0.7-5.8,2.1c-2.5,1.6-3.7,3.5-3.7,5.7
		c0,1.6,0.8,3.5,2.4,5.9c1.8,2.6,2.7,4.8,2.7,6.5c0,2.7-1.2,4.8-3.5,6.3c-1.5,0.9-3.1,1.4-5,1.4c-2.9,0-5.1-1-6.6-3.1
		c-1.1-1.5-1.6-3.2-1.6-5.3c0-2.4,0.6-4.3,1.8-6c0.8-1.1,1.6-1.6,2.5-1.6c0.8,0,1.1,0.3,1.1,0.9c0,0.2-0.1,0.6-0.4,1.1
		c-0.7,1.3-1,2.8-1,4.6c0,1.5,0.5,2.7,1.6,3.8c0.9,0.9,2,1.4,3.2,1.4c1.2,0,2.1-0.4,2.8-1.2c0.5-0.7,0.8-1.5,0.8-2.5
		c0-1.3-0.7-2.9-2.2-5c-2-2.8-3-5.3-3-7.6c0-3,1.7-5.7,5-8C32.9,412.4,36.3,411.3,39.8,411.3z"/>
	<path class="st3" d="M61.2,411.3c1.9,0,3.3,0.3,4.2,1c0.9,0.7,1.4,1.7,1.4,3c0,1.8-0.7,3.5-2,5.2c-1.3,1.6-3.2,2.8-5.7,3.8
		c-1.4,0.5-2.6,0.8-3.5,0.8c-1.3,0-1.9-0.6-1.9-1.7c0-0.8,0.4-1.3,1.1-1.7c0.2-0.1,1.2-0.3,3.1-0.8c1.1-0.2,2.2-0.8,3.1-1.6
		c0.8-0.7,1.2-1.5,1.2-2.3c0-0.6-0.2-1.1-0.5-1.4s-0.9-0.5-1.6-0.5c-1.8,0-3.7,0.7-5.8,2.1c-2.5,1.6-3.7,3.5-3.7,5.7
		c0,1.6,0.8,3.5,2.4,5.9c1.8,2.6,2.7,4.8,2.7,6.5c0,2.7-1.2,4.8-3.5,6.3c-1.5,0.9-3.1,1.4-5,1.4c-2.9,0-5.1-1-6.6-3.1
		c-1.1-1.5-1.6-3.2-1.6-5.3c0-2.4,0.6-4.3,1.8-6c0.8-1.1,1.6-1.6,2.5-1.6c0.8,0,1.1,0.3,1.1,0.9c0,0.2-0.1,0.6-0.4,1.1
		c-0.7,1.3-1,2.8-1,4.6c0,1.5,0.5,2.7,1.6,3.8c0.9,0.9,2,1.4,3.2,1.4c1.2,0,2.1-0.4,2.8-1.2c0.5-0.7,0.8-1.5,0.8-2.5
		c0-1.3-0.7-2.9-2.2-5c-2-2.8-3-5.3-3-7.6c0-3,1.7-5.7,5-8C54.2,412.4,57.6,411.3,61.2,411.3z"/>
	<path class="st3" d="M73.6,414.3c0.5,0,0.9,0.2,1.3,0.6c0.2,0.3,0.4,0.7,0.4,1c0,0.5-0.4,1.5-1.3,2.7c-3.2,4.9-5.4,8.9-6.7,12
		c-1.4,3.2-2.7,6.6-3.8,10c-0.5,1.5-1.2,2.3-2.3,2.3c-0.6,0-1.1-0.2-1.5-0.7c-0.3-0.4-0.5-0.8-0.5-1.3c0-0.9,1-3.9,2.9-9.1
		c1.5-4.1,4-8.5,7.4-13.5c1.1-1.6,1.9-2.7,2.5-3.2C72.5,414.6,73,414.3,73.6,414.3z M82.2,397.4c1.4,0,2,0.7,2,2.1
		c0,1.3-0.7,2.7-2,4.2c-1.3,1.5-2.5,2.2-3.7,2.2c-0.6,0-1-0.2-1.4-0.6c-0.4-0.4-0.5-0.9-0.5-1.5c0-1.5,0.8-3,2.4-4.6
		C80.2,398,81.3,397.4,82.2,397.4z"/>
</g>
<g id="XMLID_10_">
	<path id="XMLID_16_" class="st3" d="M120.4,437.7c1.9,0,5.2,0.5,10.1,1.4c0.7,0.2,1.6,0.2,2.6,0.2c2.2,0,4.4-0.3,6.7-1
		c0.5-0.2,0.9-0.2,1.2-0.2c0.5,0,1,0.3,1.3,0.8c0.2,0.3,0.3,0.6,0.3,1c0,1.2-0.7,2-2.1,2.7c-1.9,0.9-4,1.4-6.1,1.4
		c-2.1,0-5.4-0.4-9.9-1.2c-0.7-0.1-1.7-0.2-3-0.2c-0.6,0-1,0-1.4,0c-1.7,0.2-2.6,0.4-2.6,0.4c-0.5,0-0.9-0.2-1.4-0.6
		c-0.4-0.4-0.6-1-0.6-1.6C115.3,438.7,117,437.7,120.4,437.7z"/>
</g>
<g>
	<path class="st3" d="M92.5,431c1.3-2.7,2.5-5,3.7-7c1.1-1.9,1.9-3.2,2.3-3.7c0.4-0.6,0.9-0.8,1.2-0.8c0.2,0,0.4,0.1,0.6,0.3
		c0.2,0.2,0.2,0.3,0.2,0.5c0,0.3-0.2,0.8-0.7,1.5c-1.9,3-3.6,6.1-5.1,9.2c-1.8,3.6-2.7,6.3-2.7,8.1c0,0.7,0.1,1.3,0.4,1.7
		c0.1,0.1,0.3,0.3,0.7,0.6c0.1,0.1,0.1,0.2,0.1,0.4c0,0.3-0.1,0.5-0.3,0.7c-0.2,0.2-0.4,0.3-0.7,0.3c-0.3,0-0.6-0.2-1-0.5
		c-0.5-0.5-0.8-1.1-0.9-1.8c0-0.3-0.1-0.8-0.1-1.6c-1.4,2.4-2.6,3.7-3.9,3.7c-0.7,0-1.3-0.4-1.7-1.2c-0.3-0.5-0.4-1.1-0.4-1.8
		c0-2,0.7-4,2.2-6.1c1.5-2,3-3,4.7-3C91.6,430.5,92,430.7,92.5,431z M91.9,432.6c-0.3-0.2-0.7-0.3-0.9-0.3c-1.1,0-2.1,0.7-3.1,2
		c-1.3,1.7-1.9,3.4-1.9,5c0,0.2,0,0.4,0.1,0.5c0.2,0.3,0.4,0.5,0.7,0.5c0.5,0,1-0.4,1.6-1.3c0.9-1.2,1.7-2.5,2.4-4.1
		c0.3-0.5,0.5-1.1,0.8-1.6l0.2-0.4L91.9,432.6z"/>
	<path class="st3" d="M96.6,438.6v0.3c0,0.3,0.1,0.5,0.2,0.7c0.3,0.5,0.9,0.7,1.6,0.7c1.6,0,3.5-1.2,5.6-3.7
		c0.4-0.4,0.7-0.6,0.9-0.6c0.1,0,0.3,0.1,0.4,0.2c0.1,0.1,0.1,0.2,0.1,0.3c0,0.5-0.6,1.4-1.9,2.6c-1,0.9-2,1.7-3.1,2.3
		c-1.1,0.6-2.1,0.9-3.1,0.9c-1,0-1.7-0.3-2.3-1c-0.4-0.5-0.6-1.1-0.6-1.9c0-2.2,1-4.3,3.1-6.4c1.7-1.7,3.1-2.6,4.4-2.6
		c0.3,0,0.6,0.1,0.9,0.3c0.3,0.3,0.5,0.6,0.5,1.1c0,0.7-0.3,1.5-0.9,2.5C101.2,436.4,99.2,437.8,96.6,438.6z M97,437.1
		c0.9-0.3,1.6-0.7,2.1-1c0.9-0.7,1.6-1.5,2.1-2.4c0.2-0.3,0.3-0.6,0.3-0.8c0-0.3-0.1-0.4-0.4-0.4c-0.3,0-0.8,0.3-1.4,0.8
		C98.7,434.1,97.8,435.4,97,437.1z"/>
</g>
<g>
	<path class="st3" d="M-20.7,428.4c0.7-1.1,2.5-3.7,5.2-7.9c2.3-3.6,6-8.7,11.1-15.5c3-3.9,5.6-7.2,8-9.8c1.4-1.6,2.7-2.4,3.8-2.4
		c0.6,0,1.2,0.2,1.6,0.7c0.4,0.4,0.6,0.8,0.6,1.3c0,0.8-0.5,2-1.4,3.8c-0.2,0.4-1.1,2-2.9,5.1c-3.1,5.5-5.2,9.4-6.3,11.7
		c-3,6.4-5.2,11.9-6.6,16.4c-0.8,2.7-1.2,4.7-1.2,5.9c0,0.3,0,0.6,0.1,0.9c0.1,0.9,0.2,1.5,0.2,1.6c0,0.7-0.3,1.3-0.8,1.9
		c-0.4,0.5-0.9,0.8-1.5,0.8c-0.7,0-1.2-0.4-1.6-1.2c-0.4-0.6-0.5-1.4-0.5-2.5c0-6.6,5.5-19.6,16.6-39.1c-5.8,6.2-12.2,15-19.2,26.6
		c-1.5,2.5-2.8,4.2-3.8,5.1c-1,0.9-1.9,1.3-2.8,1.3c-0.9,0-1.5-0.4-2-1.2c-0.3-0.5-0.4-1.1-0.4-1.8c0-5.9,3.5-15.1,10.4-27.6
		c-2.4,2.4-4.6,5.2-6.8,8.4c-4,5.9-7.5,11.9-10.6,18.1c-1.5,3-3.3,6.9-5.4,11.9c-1.1,2.5-2.3,3.8-3.7,3.8c-0.4,0-0.6-0.2-0.9-0.5
		c-0.2-0.2-0.3-0.5-0.3-0.8c0-0.4,0.4-1.7,1.3-3.7c1.9-4.4,3.3-7.5,4.3-9.4c5-9.8,11-19,17.9-27.7c2.9-3.6,4.9-5.9,6-7
		c1.1-1.1,2.1-1.7,2.8-1.7c0.5,0,0.9,0.2,1.4,0.6c0.5,0.5,0.8,1.1,0.8,1.7c0,0.7-0.5,1.9-1.5,3.5c-2.8,4.6-5.4,9.7-7.8,15.5
		C-18.8,420.5-20.2,424.8-20.7,428.4z"/>
</g>
</svg>
